<svg width="544" height="544" viewBox="0 0 544 544" fill="none" xmlns="http://www.w3.org/2000/svg">
<rect width="544" height="544" rx="272" fill="white"/>
<path fill-rule="evenodd" clip-rule="evenodd" d="M417.37 212.982C427.03 205.548 412.627 181.092 407.735 173.815C403.479 164.323 399.221 154.829 394.966 145.334C395.482 137.55 388.387 130.624 381.376 132.992C375.278 128.304 365.061 130.549 361.961 137.888C294.522 106.414 177.831 119.507 171.796 216.627C158.751 244.279 146.351 266.031 134.778 294.43C118.72 295.352 110.401 322.395 119.963 335.906C121.235 357.845 134.215 359.58 151.544 358.604C158.505 360.57 165.717 361.634 170.937 367.391C174.903 371.735 177.599 377.244 180.202 382.586C192.208 407.242 207.465 428.571 228.143 445.627C260.3 471.416 303.832 489.93 343.932 477.376C430.14 441.1 447.071 296.121 417.37 212.982Z" fill="white"/>
<path fill-rule="evenodd" clip-rule="evenodd" d="M237.402 64.6082C293.5 50.386 356.524 69.4719 395.458 116.494C398.198 119.8 397.901 124.099 395.492 126.887C394.834 127.387 394.834 127.387 393.885 128.336C391.987 129.285 392.551 129.027 391.425 129.48C392.085 130.46 390.734 128.525 391.425 129.48C390.622 129.802 389.835 130.145 389.049 130.476C400.945 139.105 407.019 164.841 413.816 178.639C419.511 193.824 422.154 211.417 425.206 227.992C430.648 257.56 431.627 274.802 430.9 304.87V317.208C429.962 353.453 426.87 388.284 412.867 421.61C401.64 448.318 388.863 461.046 363.846 472.739C349.439 479.468 333.949 482.339 318.298 481.137C310.047 480.511 301.82 479.091 293.788 476.922L291.858 476.396C284.541 474.396 276.953 472.079 270.706 467.507C264.296 462.81 268.618 453.478 275.685 454.615C284.201 455.988 292.309 459.866 300.755 461.876C309.015 463.853 317.378 464.885 325.841 464.617C340.814 464.157 354.452 459.135 366.829 450.016C414.152 415.14 423.971 352.474 425.206 295.808C425.806 268.12 420.807 232.617 414.972 205.566C409.366 179.558 399.718 153.945 386.064 131.732C383.055 132.959 380.045 133.984 376.841 134.307C371.127 138.054 364.335 138.153 357.73 138.156H356.81C349.936 138.145 343.063 137.703 336.222 137.03C312.017 134.686 287.11 128.741 262.776 132.525L261.78 132.684C251.762 134.33 239.348 137.781 231.991 145.649C224.045 154.14 229.37 170.208 235.66 175.311C239.727 178.616 240.997 186.055 235.66 189.053C225.127 194.988 199.626 191.693 196.759 194.98C193.319 198.905 193.56 204.892 193.462 209.99L193.455 210.328C193.1 224.835 193.428 239.298 194.553 253.769C195.635 267.761 198.096 281.779 198.646 295.808C198.832 300.432 193.717 301.834 190.917 299.296C190.369 298.799 189.802 298.328 189.235 297.901C184.153 293.972 178.38 292.31 172.18 291.256C171.856 291.202 171.602 291.025 171.418 290.791L171.344 290.684L170.684 291.277C171.971 293.02 173.069 294.996 173.941 297.21C174.118 297.654 173.736 298.216 173.288 297.922C164.716 292.357 155.381 289.992 145.514 292.245C136.637 294.266 128.605 300.414 126.001 310.253C123.609 319.306 125.367 329.743 130.735 337.192C138.674 348.229 151.569 347.233 163.134 347.74C165.402 347.842 167.93 349.041 168.985 351.405C170.229 354.19 170.143 356.092 168.985 358.872C168.826 359.267 168.614 359.626 168.368 359.951C169.348 360.835 170.274 361.803 171.177 362.789L174.196 366.11C176.262 368.385 178.318 370.685 180.298 373.038C186.116 379.959 191.587 387.324 196.736 394.846L197.21 395.548C203.242 404.555 209.497 417.558 219.952 420.401C223.537 421.379 226.868 423.309 227.933 427.546C228.998 431.78 226.487 435.889 223.113 437.66C217.264 440.734 209.84 437.077 205.013 433.202C194.601 424.83 187.798 411.174 181.404 399.15L179.652 395.865C176.36 389.66 173.143 383.384 170.398 376.867C168.833 373.147 167.151 369.457 165.697 365.681C165.273 364.583 164.852 363.467 164.52 362.323C164.056 362.432 163.584 362.508 163.134 362.534C149.177 363.532 133.104 361.114 123.016 349.548C109.108 333.61 107.476 305.111 123.278 289.901C124.943 288.294 126.821 286.882 128.851 285.675C126.027 280.461 124.157 274.414 122.78 268.739C120.766 260.45 119.644 252.005 119.084 243.459C117.96 226.026 119.83 208.278 123.668 191.342C137.585 129.961 180.315 79.0795 237.402 64.6082ZM136.308 319.324C133.544 301.836 165.605 314.768 172.595 315.987L172.8 316.019C180.817 317.233 176.348 332.588 168.456 328.013L168.216 327.87C163.949 325.199 159.25 323.285 154.773 321.022L153.818 320.534C150.258 318.669 138.498 310.297 137.221 319.324C137.154 319.821 136.384 319.813 136.308 319.324Z" fill="black"/>
<path fill-rule="evenodd" clip-rule="evenodd" d="M277.757 397.117C284.587 379.115 299.494 365.883 316.659 361.048C329.264 357.504 342.489 357.616 355.339 359.023C362.07 359.756 369.292 360.355 375.635 363.166C381.053 365.571 385.468 370.112 388.787 375.442C392.738 381.76 395.425 388.992 397.313 396.401C397.581 397.454 397.833 398.516 398.069 399.583C397.248 405.176 395.506 409.934 390.903 413.449C386.41 416.883 381.049 418.287 375.707 418.784C375.181 418.504 374.675 418.212 374.211 417.913C365.885 412.55 360.023 399.878 349.515 401.592C340.136 403.125 333.961 416.401 328.384 424.184C310.48 426.533 292.59 420.48 278.021 408.963C277.281 405.021 277.239 401.046 277.757 397.117ZM410.236 383.461C408.805 378.938 407.001 374.56 404.863 370.436C397.793 356.792 386.942 345.92 374.059 339.707C343.585 325.029 304.156 335.377 279.545 359.451C271.138 367.681 262.639 379.775 260.066 392.785C259.299 392.956 258.576 393.405 257.979 394.036C240.198 381.444 221.887 369.326 207.559 351.869C197.153 339.186 189.916 324.173 185.484 307.679C185.123 306.32 183.176 306.521 183.235 308.021C183.252 308.374 183.269 308.724 183.285 309.075C183.1 308.43 182.223 308.762 182.156 309.388C179.771 329.426 176.79 350.67 179.536 370.815C181.179 382.835 186.031 391.632 192.519 401.135C199.471 411.32 199.514 425.414 207.559 434.5C212.665 440.266 222.747 443.771 229 448C236.27 452.913 243.74 457.71 251.5 461.5C259.395 465.367 269.857 468.403 278.021 471.5C294.342 477.713 312.615 480.003 329.777 481.884C343.519 483.384 359.222 485.021 372.392 479.204C382.485 474.748 390.632 466.692 397.094 456.999C404.129 446.445 409.692 434.42 412.766 421.74C415.961 408.57 410.911 385.585 410.236 383.461Z" fill="black"/>
<path fill-rule="evenodd" clip-rule="evenodd" d="M375.417 223.654L374.18 223.401C372.725 223.109 371.263 223.233 369.978 223.755C368.718 224.268 367.62 225.161 366.852 226.449C365.832 228.165 365.696 229.604 366.17 231.506C366.535 232.975 367.336 234.081 368.385 234.879C369.49 235.72 370.889 236.211 372.344 236.382C379.053 237.17 385.66 238.646 392.083 240.741C395.093 241.723 397.933 243.053 400.748 244.433L403.174 245.628C405.412 246.723 407.725 247.778 410.646 248.543C410.876 248.604 411.102 248.66 411.328 248.714C412.138 248.459 412.275 248.151 412.447 247.928L412.516 247.841C412.725 247.579 412.982 247.178 412.739 245.309C406.365 232.088 388.877 226.467 375.417 223.654ZM291.886 227.404L293.502 227.121C298.501 226.257 304.717 225.426 308.253 229.445C310.129 231.577 310.774 235.538 308.253 237.578C304.951 240.25 301.39 240.162 297.593 240.068C296.29 240.035 294.959 240.002 293.601 240.08C289.221 240.331 285.012 241.056 280.794 242.262C271.539 244.907 263.997 249.736 256.093 255.039C255.056 255.734 253.997 254.408 254.492 253.438C259.055 244.5 267.897 237.159 276.755 232.683C281.482 230.295 286.655 228.313 291.886 227.404ZM280.158 266.411C280.876 257.497 294.453 255.472 295.803 264.294C297.013 272.196 295.589 279.454 292.03 286.569C288.629 293.365 280.081 290.195 279.434 284.006C278.796 277.892 279.249 274.246 279.71 270.532C279.875 269.205 280.04 267.87 280.158 266.411ZM391.406 259.25C388.132 258.293 385.399 259.986 383.506 262.465C383.287 262.75 383.109 263.034 382.949 263.314C377.04 268.744 379.266 279.752 383.914 285.265C386.766 288.645 393.076 287.671 395.028 283.832C398.621 276.763 401.636 262.239 391.406 259.25ZM365.189 325.712C372.182 315.918 362.278 306.705 355.778 302.754C354.075 301.531 355.426 297.483 359.066 298.108C392.117 303.787 374.992 360.719 332.793 329.477C327.769 325.424 333.853 316.498 339.268 319.968C339.543 320.179 339.831 320.401 340.131 320.634C346.214 325.337 357.346 333.943 365.189 325.712ZM334.923 385.869C329.137 383.509 323.974 379.572 320.199 374.542C318.887 372.793 318.547 370.946 318.822 369.257C319.132 367.358 320.255 365.638 321.787 364.483C323.324 363.325 325.247 362.754 327.105 363.045C328.721 363.298 330.328 364.182 331.601 366.017L331.866 366.383C334.111 369.419 337.035 371.909 340.367 373.516C343.578 375.063 347.17 375.785 350.887 375.365C357.966 374.566 362.845 370.737 368.031 365.538C368.674 364.882 369.317 364.205 369.963 363.517C370.371 362.894 370.938 362.493 371.567 362.282C372.265 362.049 373.055 362.062 373.778 362.315C374.476 362.559 375.1 363.02 375.518 363.634C375.915 364.218 376.141 364.939 376.068 365.769C375.594 371.156 372.776 375.964 368.775 379.74C364.332 383.934 358.442 386.834 352.896 387.852C346.786 388.973 340.561 388.169 334.923 385.869Z" fill="black"/>
<path d="M184.132 284.939C184.132 284.939 181.601 315.943 181.285 324.801C181.285 324.801 199.318 343.783 193.623 332.394C187.929 321.005 201.216 293.481 195.522 297.277C189.827 301.074 184.132 284.939 184.132 284.939Z" fill="black" stroke="black" stroke-width="1.89822"/>
<path d="M309.667 225.269C311.193 225.438 313.625 228.103 314.721 229.2C316.081 230.559 317.768 232.314 319.401 233.131" stroke="black" stroke-width="1.89822" stroke-linecap="round"/>
<path d="M365.076 223.022C364.397 223.107 362.651 226.525 362.372 227.224C361.648 229.034 360.523 230.787 359.46 232.382" stroke="black" stroke-width="1.89822" stroke-linecap="round"/>
<path d="M180.26 90.4415C182.311 90.6695 184.324 94.7075 185.086 91.9655C185.305 91.1762 185.487 87.8129 186.073 87.4218C186.089 87.4116 185.34 85.4575 185.34 85.1076C185.34 83.7603 184.537 86.5068 184.437 86.8856C184.104 88.142 182.864 89.7896 182.8 90.9495C182.57 95.0839 179.584 87.4138 181.276 88.9176C182.184 89.7253 184.178 92.5602 184.07 92.4735C183.362 91.9071 183.816 85.1979 183.816 90.4133C183.816 94.1773 181.546 90.005 180.26 89.9335C179.32 89.8814 177.438 89.9335 177.438 89.9335C177.438 89.9335 179.045 90.0883 179.752 90.4415" stroke="black" stroke-width="1.89822" stroke-linecap="round"/>
</svg>
